<svg enable-background="new 0 0 571.5 463.5" height="284.701049" viewBox="0 0 571.5 463.5" width="351.245632" xmlns="http://www.w3.org/2000/svg"><g fill="#0087a8"><path d="m332.8 373.8c-.1-.9-.1-1-.3-1-.1 0-.1 0-.2.1s-.1.2-.1.3c-.5 1.9-1.3 2.8-1.4 2.8-1.6 2-4 3.2-6.6 3.2h-81c-3.2 0-6.1-1.8-7.5-4.6-.1-.3-.5-1.1-.5-1.5 0-.1 0-.3-.3-.3-.2 0-.3.2-.4 1 0 .5-.1 1-.1 1.3 0 4.6 3.9 8.4 8.7 8.4h81c4.8 0 8.7-3.8 8.7-8.4.1-.3.1-.9 0-1.3"/><path d="m260.1 327.3c.1-.2.3-.4.4-.7 0-.1.1-.1.1-.2.1-.2.3-.4.4-.6.2 0 .5 0 .7-.1.1 0 .1-.1.1-.2s-.1-.1-.2-.1c-.2 0-.3-.1-.5-.1-.2-.1-.3-.1-.5-.2l-.6-.3c-.2-.1-.4-.1-.6-.2-.4-.1-.8-.2-1.3-.2s-.9 0-1.3.1c-.5.1-.9.3-1.2.6s-.6.6-.9 1c-.4.7-.7 1.4-.8 2.3 0 .1 0 .2.1.2h.1c.1 0 .1 0 .2-.1.1-.2.2-.3.3-.5.5.4 1 .6 1.6.8.3.1.6.1.9.1.4 0 .9-.1 1.3-.2.3-.1.7-.3 1-.5.2-.3.5-.6.7-.9m-2 .6c-.5.2-1.1.3-1.8.2-.5-.1-1-.2-1.5-.5.2-.3.3-.5.5-.8.3.8 1.1 1.2 1.9.9.8-.2 1.3-1.1 1-1.9-.1-.2-.1-.3-.3-.5.4 0 .8 0 1.3.1.3 0 .5.1.8.2l.3.1h.1c-.1.1-.2.3-.3.4s-.2.2-.3.4-.2.3-.3.4c-.4.5-.9.8-1.4 1"/><path d="m304.1 349.3c0-.8.5-1.6 1.2-2.1-.4-.3-.8-.5-1.2-.8-.6.3-1 .8-1 1.4.1.7.4 1.2 1 1.5"/><path d="m305.9 350.8c.1-.7.6-1.4 1.3-1.7-.3-.3-.7-.7-1-1-.1-.1-.1-.1-.2-.2-.6.2-1.1.8-1.1 1.5 0 .6.4 1.2 1 1.4"/><path d="m307.5 352.5c.1-.8.6-1.4 1.3-1.8-.3-.3-.6-.7-.9-1-.7.2-1.1.8-1.1 1.5 0 .5.2 1 .7 1.3"/><path d="m309.3 354.3c0-.8.5-1.5 1.2-1.9-.3-.3-.7-.7-1-1-.7.2-1.1.8-1.1 1.5-.1.5.3 1.1.9 1.4"/><path d="m311.1 355.8c0-.8.5-1.5 1.1-1.9-.2-.2-.3-.3-.5-.5s-.4-.3-.6-.5c-.6.3-1 .8-1 1.4 0 .7.4 1.3 1 1.5"/><path d="m313.2 357.5c0-.2-.1-.4-.1-.5 0-.7.3-1.3.8-1.7-.3-.2-.7-.5-1-.7-.6.3-1 .8-1 1.4 0 .7.6 1.3 1.3 1.5"/><path d="m315.4 358.5c-.1-.1 0-.2-.1-.4 0 0 0 0 0-.1s-.1-.3-.1-.4c0-.5.2-1 .5-1.5-.4-.2-.7-.3-1-.5-.4.3-.7.8-.7 1.3 0 .8.6 1.5 1.4 1.6"/><path d="m317.7 359.3h.3c-.3-.4-.4-.8-.4-1.3 0-.3.1-.6.2-.9-.4-.1-.8-.3-1.2-.4-.3.3-.5.7-.5 1.1 0 .7.7 1.5 1.6 1.5"/><path d="m320.1 359.5h.2c-.4-.4-.6-1-.6-1.6 0-.2 0-.4.1-.6-.3 0-.7-.1-1.1-.2-.1.2-.2.5-.2.7-.1 1 .7 1.7 1.6 1.7"/><path d="m322.1 359.5c.4 0 .7-.1 1-.4-.8-.3-1.3-1-1.4-1.8-.4.1-.8.1-1.2.1-.1.2-.1.3-.1.5.1.9.8 1.6 1.7 1.6"/><path d="m324.1 358.5c.8 0 1.5-.7 1.5-1.6 0-.3-.1-.5-.2-.7-.9.5-1.8.8-2.8 1 .1.8.7 1.3 1.5 1.3"/><path d="m242.5 377c.8.2 1.6.4 2.3.4h.4c1.6 0 2.7-.3 3.5-.5.4-.1.7-.2.9-.2.7-.1 1.8-.1 3.1 0 .4.1.9.1 1.5.2 2.9.3 6.8.6 9.2.6h.7.2.1c2.9 0 4.8-1.3 5-1.4h.1c.8.7 4.4 1.2 6.1 1.3 1 0 2 .1 3.1.1 4.9 0 10.2-.5 13.1-.9 4.9 1 13.6 1.1 18.4 1.1 5.3 0 9.5-.2 10.2-.2h.4c1.5-.2 5.1-.5 6.5-3.6.6-1.2.5-2.5-.2-3.8s0-.1-.1-.2c2.5-2.7 2.9-7.7 1.9-11.1-.6-2.3-1.8-4-2.1-4.3-.2-.5-1.3-3.3-2.7-5.6-1.8-3.3-5.4-5.5-10.3-6.6-2.1-.4-4.3-.7-6.5-.7-1.3 0-2.6.1-3.8.2-.2 0-.6.1-1.2.2-2.3.4-6.7 1.1-8.3 1.2-.4 0-.7-.2-1-.5-.6-.8-.4-2.4-.3-2.9 0-.1 0-.1 0-.1.4-2.1-.2-3.8-1.7-5-.7-.5-1.6-.8-2.7-.8-1 0-2 .2-3 .4-.3.1-.6.1-.8.2-.9.2-1.8.4-2.8.4-.5 0-1-.1-1.5-.2-.2 0-.3-.1-.6-.2-2.2-1.2-6.2-5.3-6.6-5.7v-.1c.3-.5.4-.8.6-1.3.1-.3.2-.6.4-1.1.2-.4.8-1.3 1-1.7.1-.1.1-.3.1-.4s-.1-.3-.3-.3c-1.1-.6-2.3-.7-3.1-.7h-.2l.1-.1c1.3-1.9 2.5-4.9 2.5-5 .1-.2 0-.3-.1-.5-.1-.1-.3-.2-.4-.2-5.6.2-7.9 1.4-8.8 2.1h-.1-.1c-.5-.4-1.2-.8-2.3-.8-.4 0-.7 0-1.1.1-1.5.4-2.2 1.5-2.5 2.1h-.1c-.7.1-2.7.7-4.7 3.3-2.7 3.5-5.6 5.2-7 6.1-.3.2-.5.3-.6.4-1.7 1.3-3.2 3.1-1.2 6.8 1.5 2.7 5 3.6 7.7 3.6.8 0 1.5-.1 2.2-.2h.1v.1c.3.4 1.1 1.6.6 3-.2.5-.5 1-.7 1.5-.1.1-.2.3-.2.4-.7 1.2-1.3 2.2-.6 4.1v.1h-.1c-.7.4-1.9 1.4-2.1 2.7-.1.7-.1 1.3.1 2v.1.3c-.1.2-.4.2-.8.1l-.3-.1c-.1 0-.3-.1-.4-.1-.7-.2-1.5-.4-2.3-.4-.6 0-1.1.1-1.6.3-1.6.6-3.8 2.3-5.6 7-.5 1.3-.9 2.4-.4 3.4.2.3.2.9-.9 1.5-.5.3-.9.9-.9 1.5 0 .4.1.8.3 1.1v.1c.1.2.2.4 0 .8-.2.3-.5.8-.7 1.2-.4 1-.4 1.2-.5 1.7v.1c.3.9 1.8 2.8 4.5 3.6m9.6-2.5c-2 .3-3.2-.5-3-1.7.2-1.3.4-2.6.5-3.1s.2-1.1.9-1.5c.6-.4 1.8-.4 3 .5 1 .7 1.8 1.7 2.4 2.4 1.6 2.5-1.5 3-3.8 3.4m41.8-7.9c-.1.5-.4 1.7-2.1 1.6s-1.8-1.6-1.8-2c.1-.4.1-.8.3-1.9s1.1-1.4 2-1.4c1.3 0 1.8 1.1 1.8 1.6.1.5-.1 1.6-.2 2.1m4.6 8.2c-1.9-.1-2.6-.6-2.4-1.8.2-1.7 2.7-.4 2.9-1 .1-.4-1-.5-1.9-.8-.9-.4-.8-1.7 1-2.4s3.3 0 4.1.6c.8.5 0 .7 0 .7-3.2 1.1-3.4 3.9-3.4 4.7-.1 0-.2 0-.3 0m8.1 1c-.1.1-.3.1-.3.1-1.4.2-2.5 0-3-.1-.2 0-.3-.1-.3-.3-.1-1 .5-2.2.7-2.5.4-.6-.4-1.2-.9-.4-.8 1-1 2.3-1 2.8 0 .1-.1.2-.3.2-.8-.1-1.3-.4-1.6-.7-.1-.1-.2-.2-.1-.4.2-2.6 2.3-3.5 3-3.7.2 0 .3 0 .4.1.8 1 3 1.2 4.2 1.3.3 0 .8.2.7.5-.3 2.2-1.1 2.9-1.5 3.1m2.1-4.4c-.1-.1-.8-.4-1.9-.5-2.6-.2-2.9-1.7-2.9-2.4 0-1.1.8-1.9 1.4-2.2 0 0 .2.7.8 1.2-.2.1-.7.5-.7 1 0 .3 0 .9 1.5 1 .5 0 2.3.2 3 1-.9.2-1.2.9-1.2.9m4.5 3.5c-1.2.1-4 .2-3.8-2.4.1-.9.8-1.4 1.9-1.5 1.5-.1 2.9.4 2.9.4 1.6.6 3.2 1.7 4.4 3.5 0 0-4.2-.1-5.4 0m-4.9-32.4c.6 0 1.3.1 1.9.1 3.9.3 8.4 1.4 11.3 4.3.4.4.7.8 1 1.2.2.3 1 1.5 1.1 1.8.3.5.5.9.7 1.4-.1.1-.1.1-.2.2-.4.3-1.9 1.3-3.7 1.3-.1 0-2.6 0-5.5-2.7l-.1-.1c-1.3-1.1-2.5-2.4-3.6-3.6-.6-.7-1.2-1.3-1.7-1.8-1-.9-2-1.7-3.1-2.2.7.1 1.3.1 1.9.1m-6.6.7c.9-.2 1.6-.3 2.3-.4 1.5.6 3.2 1.6 4.6 3 .5.5 1 1 1.6 1.7 1 1.1 2.3 2.5 3.7 3.7 3.3 3 6.2 3.1 6.6 3.1 2.2 0 3.9-1.1 4.5-1.6.2.3.3.7.5 1.1-.9.6-2.7 1.7-5 1.7-.6 0-3.8-.2-7.4-3.4-1.4-1.2-2.7-2.6-3.8-3.7-.6-.7-1.2-1.2-1.6-1.6-1.9-2.2-4.3-3.1-6-3.6zm-5.4 1.3c.1 0 .1-.1.2-.1.3-.1.6-.1 1-.3.9-.2 1.7-.1 2.5.1.6.1 1.2.3 1.7.4 1.4.5 3.4 1.3 5 2.9.4.4.9.9 1.5 1.6 1.1 1.1 2.4 2.6 3.9 3.9 3 2.8 6.3 3.8 8.3 3.8 2.5 0 4.5-1 5.6-1.8.4.6 1.3 2.2 1.8 3.9.9 3.1.5 7.5-1.5 9.8-1.5 1.6-3 1.4-3.5 1.2-.1-.1-.2-.2-.1-.2 0 0 .1 0 .1-.1.8-.4 1.4-1 1.9-1.5.1-.1.2-.2.2-.3 2.1-2.5 1.6-5.6 1.4-6.5-.1-.3-.4-.5-.7-.4s-.5.4-.5.7c.2.8.6 3.4-1.1 5.5-1.7 2-4.9 3.1-9.6 3.1h-.1c-.2 0-.5 0-.7-.1-3.9-.3-5.9-2.2-6.8-3.3-1-1.4-1.5-3-1.1-4.4.7-3 3.9-4.3 4-4.3.3-.1.5-.5.3-.8-.1-.3-.5-.4-.8-.3-.1 0-.7.3-1.5.8-1.4.8-3 2.2-3.8 4.6s-1.4 4.9-4.8 4.3c-1.6-.4-3.7-1.3-3.7-3.7.7-6.1-1.3-14.3-1.3-14.7-.4-2 .7-3.2 2.2-3.8m-2.1 12.7c.1.8.2 2.1.2 2.7s-.2 1.8-2 1.8c-1.6 0-1.8-1.1-1.8-1.8 0-.6-.1-1-.1-2.2s.9-1.9 1.9-1.9c.8.1 1.7.4 1.8 1.4m-1.3-7.5c.4.9.7 2.3.7 3.1 0 .9 0 1.5-1.5 1.9-1.5.3-2.1-.7-2.3-1.2-.2-.6-.5-1.3-.6-1.7-.7-1.5.1-2.5 1-2.9.8-.3 2.2-.5 2.7.8m-12.8-14.2c.2.1.5.1.7.2.5.7.3 1.6-.2 2.1-.8.7-1.9.7-2.5.2.4.7.2 1.5-.5 2s-1.6.4-2.1-.1c0 0 0 0-.1 0 .3.7 0 1.5-.7 1.9s-1.5.2-2.1-.3c0 0 0 0-.1 0 .2.7-.1 1.4-.8 1.7-.8.3-1.6.2-2-.3 0 0 0 0-.1 0 0 .4-.1 1.2-1 1.5-.8.3-1.7.1-2-.3-.1.5-.5 1.1-1.3 1.3-.9.2-1.6-.1-1.8-.3-.3.1-.6.2-.9.3s-.1.2 0 .4c.4 0 .8.4.8.8s-.4.8-.8.8-.8-.3-.8-.8c0-.3.2-.5.4-.6-.1-.2-.1-.3-.1-.4-.5.1-1.1.3-1.7.4v.1s-.1.2 0 .4c.5 0 .9.4.9.9s-.4.9-.9.9-.9-.4-.9-.9c0-.3.2-.6.5-.8-.1-.2-.1-.4 0-.5-.6.1-1.3.3-2 .3 0 0-.1.2 0 .4.6 0 1 .5 1 1 0 .6-.5 1-1.1 1-.2 0-.3 0-.4-.1-.4-.1-.6-.5-.6-.9 0-.1 0-.1 0-.2s0-.1.1-.2.1-.1.1-.1 0 0 .1-.1c0 0 0 0 .1-.1 0 0 .1-.1.1-.1.1-.1.2-.1.2-.2-.1-.2-.1-.3 0-.4h-.1s-.5.1-.6-.4c0-.3.2-.4.5-.5 1.3-.2 3.7-.6 6.8-1.5 1.9-.6 4.1-1.4 6.5-2.7 2.6-1.3 5.3-3 7.9-5.1.4-.4.9-.8 1.3-1.1-.2.2.1.4.2.4m-1.5-.8c-6.8 6-14.2 8.4-18.5 9.4-.3 0-.7 0-.8-.5s.2-.7.4-.8c.9-.2 2-.6 3.4-1.2.3-.1.4-.5.3-.8-.2-.3-.5-.4-.8-.3-.6.3-1.1.5-1.6.7-1.4.4-2.7 0-2.7-1 0-.8 2-.9 2.8-1.1.2 0 .3 0 .5-.1 2.4-.4 5-.9 6.3-2.8 1.5-2.1.2-4.9.2-4.9 2.2.2 3.9-1.1 4.7-1.9.9 1.1 3.7 3.9 5.8 5.3m-5.5-16.6c-.3.5-.7 1.4-1.7 2.8-1.9 2.6-5.3 3.7-6.5 2.2-2.9-4 8.2-5 8.2-5m-17.6 20.5c-1.1.1-1.4-.5-1.4-.5-.5-.6-.1-1.1.2-1.3s1.1-.8.6-1.4c-.9-1-1.7.2-1.9.6s-.3 1.4-1.7 2.1c-.9.4-2.3.7-3.2 0-.5-.4-1-.9-1.3-1.5-.6-.9-.8-1.7-.8-2.4 0-.9.3-1.9 1.4-2.3 1.2-.5 1.4-.1 1.8-.4.2-.1.2-.4.3-.6.2-1 2.4-1.9 3.6-3.4.9-.9 1.7-1.9 2.5-2.9 1.8-2.4 3.4-2.8 4-2.9s2-.3 2.9.7 1.1 2.7.5 3.9-.2 1.5 0 1.6c.2.2 1.1.9 2.3-.7 0 0 2.1-2.7 5.4-3.3.3 0 1.8-.3 3.4.3-.3.4-.6 1-.7 1.3-.2.5-.4.8-.5 1.1-.2.5-.3.9-.7 1.5-.2.2-1.5 1.9-3.5 2-1-.1-.6-1.4-.3-2s2.4-2 2.7-2.3c.3-.2.2-.6-.4-.2-.6.3-1.3-.2-2.2.4s-.5 1.5-.5 1.5-1 .7-1.8 1.2-.1 1.5.2 2c.3.4 1.7 2.8.5 4.7-1 1.6-3.3 1.9-5.5 2.3-.8.1-2-.1-2.7.1-1.2.3-2.2.7-3.2.8m.6 11.6c1.4-.1 5.4-.5 10.3-2.1 5-1.6 11.8-4.2 17-10.4s0 0 0-.1l.2-.2c.5-.6 1.9-2.2 4-2.6 1-.1 2.2-.1 3 .5 1.2 1 1.7 2.5 1.1 4.6-.3 1.1-1.9 2.2-3.3 2.3-1.6 0-2.3-1-2.3-1-.2-.3-.5-.4-.8-.2-.2.1-.3.4-.3.6s.5 1.5 2.3 1.9c1.5.2 1.3 1.1.9 1.3-10.2 4.6-18.6 6.4-24.1 7.2-3.4.4-6.1.5-7.9.5-.5-.1-1-.5-1.1-1.1-.2-.7.5-1.1 1-1.2m28.7-2.9c.1-.1.2-.2.4-.1.1.1.2.2.1.3 0 0-.1.2 0 .5.7 0 1.3.6 1.3 1.2 0 .7-.6 1.3-1.3 1.3s-1.3-.6-1.3-1.3c0-.5.3-.9.8-1.1-.2-.4 0-.8 0-.8m-3.3 1c.1-.1.2-.2.4-.1.1.1.2.2.1.4 0 0-.1.3 0 .5.7 0 1.3.6 1.3 1.2 0 .7-.6 1.2-1.3 1.2s-1.3-.6-1.3-1.2c0-.5.3-1 .8-1.1-.2-.5 0-.8 0-.9m-3.1.9c.1-.1.2-.2.4-.1.1.1.2.2.1.4 0 0-.1.3 0 .5.7 0 1.3.6 1.3 1.2 0 .7-.6 1.2-1.3 1.2s-1.3-.6-1.3-1.2c0-.5.3-.9.8-1.1-.2-.4 0-.8 0-.9m-3 1c.1-.1.2-.2.4-.1.1.1.2.2.1.3 0 0-.1.2 0 .5.7 0 1.3.6 1.3 1.2 0 .7-.6 1.2-1.3 1.2s-1.3-.6-1.3-1.2c0-.5.3-1 .8-1.1-.2-.4 0-.7 0-.8m-3.1 1c.1-.1.2-.2.4-.1.1.1.2.2.1.3 0 0-.1.3 0 .5.7 0 1.3.6 1.3 1.3s-.6 1.3-1.3 1.3-1.3-.6-1.3-1.3c0-.5.3-1 .8-1.1-.2-.5-.1-.8 0-.9m-3.4.6c.1-.1.2-.2.4-.1.1.1.2.2.1.4 0 0-.1.3 0 .5.7 0 1.3.6 1.3 1.2 0 .7-.6 1.2-1.3 1.2s-1.3-.6-1.3-1.2c0-.5.3-.9.8-1.1-.1-.5 0-.9 0-.9m-3.2.6c.1-.1.2-.2.4-.1.1.1.2.2.1.4 0 0-.1.3 0 .5.7 0 1.3.6 1.3 1.2s-.6 1.2-1.3 1.2-1.3-.6-1.3-1.2c0-.5.3-.9.8-1.1-.2-.5 0-.8 0-.9m-2.9.5c.1-.1.2-.2.4-.1.1.1.2.2.1.3 0 0-.1.2 0 .5.7 0 1.2.6 1.2 1.2 0 .7-.6 1.2-1.3 1.2s-1.3-.6-1.3-1.2c0-.5.3-1 .8-1.2-.1-.2.1-.6.1-.7m-3 .4c.1-.1.2-.2.4-.1.1.1.2.2.1.3 0 0-.1.3 0 .5.7 0 1.3.6 1.3 1.2 0 .7-.6 1.3-1.3 1.3s-1.3-.6-1.3-1.3c0-.5.3-.9.8-1.1-.2-.4 0-.8 0-.8m-3 .1c.1-.1.2-.2.4-.1.1.1.2.2.1.4 0 0-.1.2 0 .5.7 0 1.3.6 1.3 1.2 0 .7-.6 1.3-1.3 1.3s-1.3-.6-1.3-1.3c0-.5.3-1 .8-1.1-.2-.4 0-.8 0-.9m-17.1 19.5c.1-.6.4-1.6 1-2.4.5-.7.5-1.1.3-1.4 0 0-.1-.1-.1-.1-.1-.2-.2-.4-.3-.6v-.1c0-.1 0-.1 0-.1 0-.3.2-.5.4-.6 1.9-1.1 1.7-2.3 1.4-2.9s.4-2.6.4-2.6c1.6-4.3 3.5-5.9 4.9-6.4 2.3-.9 6.2 1.9 6.6 2.1 1.3.8 5 3.1 5.9 3.7.6.4 1.6 1.1 2.2 1.5.2.1.4.2.5.3 1.8 1.1 3.4 1.9 3.8 1.2.4-.8-2.7-3.2-4.1-4.8-1.2-1.4-1.3-1.8-1.3-2.4s.5-1.1.5-1.1.5 1 1.9.7c1-.2 1.2-.9 1.2-.9s.7.6 1.8.3 1.2-1.2 1.2-1.2.6.9 2 .6c1.3-.3 1.3-1.3 1.3-1.3s.6 1 2.1.7c1.3-.3 1.2-1.5 1.2-1.5s.7.8 2 .5c1.2-.3 1.2-1.3 1.2-1.3s.6.8 1.8.5 1.2-1.4 1.2-1.4.8.9 2.2.4c.8-.3 1-1.2 1-1.2s.7.8 1.9.6c.6-.2 1.1-.6 1.4-.9.4.6 3.2 4.9 1.8 13.1-.5 2.6-1 4.6-1.6 6-.3.7-.8 1.3-2.1 2-2.1 1.3-6.8 1.1-9 .9-.2 0-.3 0-.5 0-3.7-.4-2.8-5.1-1.6-6.3s2.8-3.5 3.1-4.5c.5-1.4 0-1.7-.4-1.7s-.5.3-.8 1.2-1.9 3.5-4.5 5.3c-1.2.8-1.9 1.6-2.3 2.6-.7 1.1-.5 1.7-.8 2.5-.2.9-1.5 2.6-4.2 2.2-.9-.1-1.6-.5-2.1-1-1.8-1.9-.1-4 .6-4.7.2-.2.2-.3 0-.3-2.5-.7-3.4 1.2-4 2.2-.2.4-.5.7-.7.5-1.1-.9.2-3.2.7-4.1.6-.9.5-1.7-1.5-1.1-1.6.5-2.3.7-4 .1-1.5-.5-3.2-2.1-2-4.8.2-.6.4-1.1.4-1.5.1-.9-.7-.9-1.2-.5-.8.6-1.3 1.3-1.6 1.8-.5.7-1.5 2-2.7 1.4-.9-.5-1.6-.6-1.8-.1s.4 1.2 1.4 2.1c1.6 1.3 1.2 4.1-.9 3.9-2.1-.1-2.9-.1-3 .7 0 .4.3.6.7.9s1.2.6.8 3.6c-.1 1-.5 2.8-2 2.2-.1 0-.2-.1-.3-.1-.4-.2-.4-.4-.3-.7.2-1.3.7-2.3.7-2.4.1-.2.2-.7-.1-.9-.4-.2-.7.3-.8.5 0 .1-.4.8-.6 1.9-.1.4-.4 0-.4-.4.1-.2.1-.3.1-.4"/><g clip-rule="evenodd" fill-rule="evenodd"><path d="m320.6 403.9v29.7s.7 1.9 5.2 2.1v1.3h-19.2v-1.3s3.9 0 5.2-2.2v-14.5h-15v14.6s.7 1.9 5.2 2.1v1.3h-19.2v-1.3s3.9 0 5.2-2.2v-29.7c-1.3-2.1-5.2-2.2-5.2-2.2v-1.3h19.2v1.3c-4.5.2-5.2 2.1-5.2 2.1v12.8h15v-12.8c-1.3-2.1-5.2-2.2-5.2-2.2v-1.3h19.2v1.3c-4.5.5-5.2 2.4-5.2 2.4m-31.2.2h1.4v29.5h-1.4zm23.8 0h1.4v29.5h-1.4z"/><path d="m377.5 433.6s1.2 1.9 5.4 2.1v1.3h-19.5v-1.3s3.6 0 4.8-2.2v-29.7c-1.2-2.1-4.8-2.2-4.8-2.2v-1.3h17.7 6.3s7.8-.3 10.5 6c0 0 1.1 3.4.1 5.9-1.5 5.3-8.6 7.2-8.6 7.2s3 1.5 8.4 9.9c0 0 4.3 5.7 7.1 6.5l1.2 1.2-12.9-.1c-1.3-.5-7-8.9-7-8.9-4.8-7.6-8.5-7-8.8-7v12.6zm0-30.3c-.1.3 0 .6 0 .6v14.6c.5 0 9.1.5 11.7-6 .6-1.9.5-3.6.5-3.6-1-8-12.1-5.6-12.2-5.6zm14.5 30h1.5c-1.1-1.2-5.1-7.2-5.1-7.2-1.4-2.5-4.7-5.1-4.7-5.1l-1.4.1s3.5 2.8 5 5.6c0 0 3 4.7 4.7 6.6m-3.6-29.9c6.9 6.5-.1 13.1-.1 13.1s4.3-2.2 4.3-6.6c0-4.6-4.2-6.5-4.2-6.5m-18.2.7h1.3v29.5h-1.3z"/><path d="m341.9 403.6v13.1h7.9c1.1-.5 2.2-5.4 2.4-6.4h1.5v14.8h-1.6c-.1-.8-1.2-6-2.4-6.2h-7.9v12.5c.1.6.5 2.7 2.5 2.8 0 0 7 1.2 13.2-1.1 0 0 1.2-1.2 2.5-6.7l1.5-.1-.4 10.7h-18.2-2.6-12.6v-1.3s3.1 0 4.1-2.2v-29.7c-1.1-2.1-4.1-2.2-4.1-2.2v-1.3l32.4.1-.1 10h-1.5c-1.3-5.5-2.7-6.5-2.7-6.5-5.1-2.1-12.7-.6-13.9-.3m-7.3.3h1.1v29.5h-1.1z"/><path d="m420.4 407.4-6 15.9h12.7zm.5-3.4h1.2l12.3 29.3h-1.5zm-7.4 21.7-2.9 7.6s.9 2.2 5.1 2.3v1.5h-13.8v-1.5s4.3 0 5.4-2.7l11.1-28.8c-1-2.1-5.2-2.1-5.2-2.1v-1.5h13.4l14 32.3s1.2 2.9 5.5 2.8v1.5h-19.9v-1.5s4.4-.3 5.2-2.1l-3.3-7.8z"/><path d="m466.3 400.4v1.4c-4.3.3-4.5 1.5-5.1 2.2v27.4c.1.6.4 2.7 2.2 2.8 0 0 7.2.9 12.9-1.1 0 0 1.5-2.3 2.6-7.8l1.4-.1-.3 11.9h-32.8v-1.5s4.2-.1 5-2.2l.1-29c-.8-2.1-5.1-2.4-5.1-2.4v-1.4h19.1zm-12.3 3.8h1.2v29.4h-1.2z"/><path d="m521.1 410.8c-4.7-10.7-17.2-10.4-17.2-10.4h-22.4v1.4s4.5.2 5.2 2.4v29.2c-.7 2.2-5.2 2.4-5.2 2.4v1.4h20.1c9-.2 16.6-4.4 19.7-11 3.3-7.9-.2-15.4-.2-15.4m-7.4 1c-1.5-6.7-5.3-8.3-5.3-8.3 4.7 1.1 7.1 7.1 7.4 13.5.3 7-2.1 14.5-7.2 16 0 0 5.6-3 5.8-14.4 0-.1.1-1.8 0-3.2-.3-1.9-.7-3.6-.7-3.6m-1.2 6.6s.2 6.6-1.9 10.3c-3.2 6.8-11.3 6.1-11.3 6.1-3.7-.3-3.8-2.7-3.8-2.7v-28.8s2.3-.6 7-.5c0 0 4.3-.2 7.1 3.3 0 0 2.7 3.4 2.9 8.9zm-24.4-14.4h1.4v29.4h-1.4z"/><path d="m83 410.8c-4.6-10.4-16.6-10-16.6-10h-21.6v1.3s4.3.2 5 2.3v28.2c-.7 2.1-5 2.3-5 2.3v1.3h19.4c8.7-.2 16-4.2 19-10.7 3.1-7.3-.2-14.7-.2-14.7m-7.2 1c-1.4-6.5-5.1-8.1-5.1-8.1 4.5 1.1 6.9 6.9 7.1 13 .3 6.8-2 14-7 15.5 0 0 5.4-2.9 5.6-14 0-.1.1-1.7 0-3.1-.2-1.6-.6-3.3-.6-3.3m-1.1 6.4s.2 6.4-1.9 9.9c-3.1 6.5-10.9 5.9-10.9 5.9-3.6-.3-3.7-2.6-3.7-2.6v-27.9s2.2-.6 6.8-.5c0 0 4.1-.1 6.8 3.2 0 0 2.6 3.3 2.8 8.6zm-23.6-13.9h1.3v28.5h-1.3z"/><path d="m99.2 403.9v12.7h7.6c1.1-.4 2.1-5.3 2.3-6.2h1.5v14.4h-1.5c-.1-.8-1.2-5.8-2.3-6h-7.6v12.1c.1.6.4 2.6 2.4 2.8 0 0 6.8 1.2 12.8-1.1 0 0 1.2-1.1 2.5-6.5l1.4-.1-.4 10.3h-17.6-2.5-12.1v-1.3s3 0 4-2.1v-28.8c-1-2.1-4-2.1-4-2.1v-1.3l31.3.1-.1 9.7h-1.4c-1.3-5.4-2.6-6.3-2.6-6.3-5.1-2.1-12.5-.6-13.7-.3m-7 .3h1v28.6h-1z"/><path d="m205.5 407.7-5.9 15.4h12.3zm.4-3.3h1.1l11.9 28.4h-1.4zm-7.2 21-2.8 7.4s.8 2.1 5 2.2v1.5h-13.4v-1.5s4.1 0 5.3-2.7l10.8-27.9c-1-2-5.1-2.1-5.1-2.1v-1.3h13l13.6 31.3s1.2 2.8 5.3 2.8v1.5h-19.3v-1.5s4.3-.3 5-2l-3.2-7.5h-14.2z"/><path d="m130.1 435.2s6.2 3.2 15.6 1.3c0 0 4.7-.8 9-5.5l-1.2-1.6c-8.9 7.5-17.6 2.6-17.6 2.6-11.9-6.7-8.1-31.6 8.3-29 0 0 4.6.4 5.2 2.8l1.6 4.9h1.4v-8.2s-6.8-3.3-17.6-1.5c-8.7 1.7-12.5 9.8-12.5 9.8s-1.5 2.5-1.9 7.4c-.1.1-1.3 11.7 9.7 17m-7.1-14.9s-.2 9.2 8.2 13.7c-6.2-2.3-8.4-8.6-8.4-8.6-1.8-5.8-.5-10.7-.5-10.7 2.2-8.7 8.8-11.1 8.8-11.1-6.8 4.5-7.7 11.3-7.7 11.3s-.4 1.6-.4 5.4"/><path d="m164.2 435.2s6.2 3.2 15.6 1.3c0 0 4.7-.8 8.9-5.5l-1.2-1.6c-8.9 7.5-17.6 2.6-17.6 2.6-11.9-6.7-8.1-31.6 8.3-29 0 0 4.6.4 5.2 2.8l1.6 4.9h1.4v-8.2s-6.7-3.3-17.6-1.5c-8.7 1.7-12.5 9.8-12.5 9.8s-1.5 2.5-1.9 7.4c-.1.1-1.3 11.7 9.8 17m-7.2-14.9s-.2 9.2 8.2 13.7c-6.2-2.3-8.4-8.6-8.4-8.6-1.8-5.8-.5-10.7-.5-10.7 2.2-8.7 8.8-11.1 8.8-11.1-6.8 4.5-7.7 11.3-7.7 11.3s-.4 1.6-.4 5.4"/><path d="m239.4 408 22 28.5h5.4v-31.8c1.1-2.1 5.1-2.2 5.1-2.2v-1.5h-13.2v1.5c3.9 0 5.1 2.1 5.1 2.1v20.6l-18.8-24.2h-13.7v1.5s3.4-.1 5 2.1l.1 28.3c-1.1 2.1-5.1 2.2-5.1 2.2v1.5h13.2v-1.6c-3.8 0-5.1-2.1-5.1-2.1zm22.7 24.9-21.8-28.3h-1.5l21.8 28.3z"/><path d="m263.2 99.1c-26.1-77.3-94.9-74.8-94.9-74.8h-123.5v9.9s24.7 1.5 28.5 17.2v210.4c-3.8 15.8-28.5 17.2-28.5 17.2v9.9h110.9c50-1.3 91.5-31.5 108.7-79.4 17.8-55.8-1.2-110.4-1.2-110.4m-40.9 7.5c-8.2-48.6-29.3-60-29.3-60 25.9 8.2 39.4 51.6 40.9 97.3 1.6 50.8-11.8 104.5-39.8 115.8 0 0 30.8-21.7 31.8-104.2.2-.8.5-13.1-.3-23.2-1-13.5-3.3-25.7-3.3-25.7m-6.4 47.2s1 47.9-10.7 74.1c-17.5 48.8-62.5 43.9-62.5 43.9-20.7-2.1-21-19.2-21-19.2l-.1-208s12.5-4.5 38.8-3.6c0 0 23.6-1.1 39 24.1 0 0 14.9 24.4 15.9 64.1zm-134.8-103.4h7.7v212.4h-7.7z"/><path d="m490.5 49v215.2s4.4 13.8 32.2 15.5v9.5h-118.2v-9.5s23.8-.2 32-15.6v-105.4h-92.2v105.6s4.4 13.8 32.2 15.5v9.5h-118.2v-9.5s23.8-.2 32-15.6v-215c-8.2-15.4-32-15.6-32-15.6v-9.5h118.2v9.5c-27.8 1.7-32.2 15.5-32.2 15.5v92.4h92.2v-92.4c-8.2-15.4-32-15.6-32-15.6v-9.5h118.2v9.4c-27.8 1.8-32.2 15.6-32.2 15.6m-191.7 1.4h8.5v213.6h-8.5zm146.5-.1h8.5v213.6h-8.5z"/></g></g></svg>